<svg width="668" height="582" viewBox="0 0 668 582" fill="none" xmlns="http://www.w3.org/2000/svg">
<g clip-path="url(#clip0_2_36)">
<path d="M574.956 147H492.956C486.063 147 480.456 141.393 480.456 134.5V52.5C480.456 45.6074 486.063 40 492.956 40H574.956C581.849 40 587.456 45.6074 587.456 52.5V134.5C587.456 141.393 581.849 147 574.956 147ZM492.956 42C487.157 42 482.456 46.701 482.456 52.5V134.5C482.456 140.299 487.157 145 492.956 145H550.395C569.759 145 585.456 129.303 585.456 109.939V52.5C585.456 46.701 580.755 42 574.956 42H492.956Z" fill="#F2F2F2"/>
<path d="M574.956 147H492.956C486.063 147 480.456 141.393 480.456 134.5V52.5C480.456 45.6074 486.063 40 492.956 40H574.956C581.849 40 587.456 45.6074 587.456 52.5V134.5C587.456 141.393 581.849 147 574.956 147Z" fill="#1823FF"/>
<path d="M533.456 22C539.531 22 544.456 17.0751 544.456 11C544.456 4.92487 539.531 0 533.456 0C527.381 0 522.456 4.92487 522.456 11C522.456 17.0751 527.381 22 533.456 22Z" fill="#F2F2F2"/>
<path d="M467.484 308.714H385.484C378.591 308.714 372.984 303.106 372.984 296.214V214.214C372.984 207.321 378.591 201.714 385.484 201.714H467.484C474.376 201.714 479.984 207.321 479.984 214.214V296.214C479.984 303.106 474.376 308.714 467.484 308.714ZM385.484 203.714C379.685 203.714 374.984 208.415 374.984 214.214V296.214C374.984 302.013 379.685 306.714 385.484 306.714C436.57 306.714 477.984 265.3 477.984 214.214C477.984 208.415 473.283 203.714 467.484 203.714H385.484Z" fill="#F2F2F2"/>
<path d="M425.984 183.714C432.059 183.714 436.984 178.789 436.984 172.714C436.984 166.639 432.059 161.714 425.984 161.714C419.909 161.714 414.984 166.639 414.984 172.714C414.984 178.789 419.909 183.714 425.984 183.714Z" fill="#F2F2F2"/>
<path d="M429.337 249.691C425.65 250.671 421.36 248.172 420.582 244.375C419.773 240.43 423.266 236.143 427.283 236.114C431.36 236.084 434.885 240.192 434.222 244.203C433.802 246.748 432.23 248.966 430.804 251.047C429.215 253.366 427.553 255.635 425.841 257.864C421.966 262.906 417.832 267.743 413.708 272.581C412.83 273.611 413.445 275.021 414.769 275.142L438.233 277.289C440.155 277.464 440.143 274.463 438.233 274.289L414.769 272.142L415.829 274.702C420.373 269.372 424.911 264.032 429.142 258.447C431.165 255.775 433.208 253.063 434.949 250.195C436.48 247.671 437.641 244.791 437.199 241.791C436.437 236.62 431.296 232.466 426.052 233.22C420.844 233.969 416.826 239.297 417.577 244.507C418.401 250.225 424.649 254.041 430.134 252.584C431.998 252.088 431.208 249.194 429.337 249.691Z" fill="#F2F2F2"/>
<path d="M654.956 409H572.956C566.063 409 560.456 403.393 560.456 396.5V314.5C560.456 307.607 566.063 302 572.956 302H654.956C661.849 302 667.456 307.607 667.456 314.5V396.5C667.456 403.393 661.849 409 654.956 409ZM572.956 304C567.157 304 562.456 308.701 562.456 314.5V396.5C562.456 402.299 567.157 407 572.956 407C624.042 407 665.456 365.586 665.456 314.5C665.456 308.701 660.755 304 654.956 304H572.956Z" fill="#F2F2F2"/>
<path d="M613.456 284C619.531 284 624.456 279.075 624.456 273C624.456 266.925 619.531 262 613.456 262C607.381 262 602.456 266.925 602.456 273C602.456 279.075 607.381 284 613.456 284Z" fill="#F2F2F2"/>
<path d="M604.847 337.963C609.979 335.353 616.807 337.262 618.682 343.02C619.486 345.489 619.221 348.222 617.601 350.31C615.94 352.45 613.354 353.604 610.665 353.335V356.335C614.021 356.552 617.388 357.763 619.748 360.231C621.894 362.475 622.976 365.881 622.107 368.916C621.265 371.858 618.448 374.045 615.395 374.203C612.353 374.361 609.339 372.412 608.198 369.588C607.484 367.82 604.581 368.592 605.305 370.385C607.859 376.709 615.649 379.295 621.245 375.091C626.956 370.803 626.375 362.362 621.451 357.691C618.534 354.924 614.622 353.591 610.665 353.335C608.719 353.209 608.774 356.145 610.665 356.335C614.238 356.692 617.763 354.958 619.937 352.154C622.122 349.336 622.671 345.603 621.575 342.223C619.089 334.555 610.226 331.867 603.332 335.372C601.611 336.247 603.128 338.837 604.847 337.963Z" fill="#F2F2F2"/>
<path d="M157.956 416H75.956C69.0634 416 63.456 410.393 63.456 403.5V321.5C63.456 314.607 69.0634 309 75.956 309H157.956C164.849 309 170.456 314.607 170.456 321.5V403.5C170.456 410.393 164.849 416 157.956 416Z" fill="#17182A"/>
<path d="M127.008 322.554C132.012 319.939 133.949 313.763 131.334 308.759C131.071 308.255 130.763 307.792 130.433 307.352L144.024 216L123.932 216.129L115.547 305.807C112.073 308.843 110.982 313.958 113.213 318.228C115.828 323.232 122.004 325.168 127.008 322.554Z" fill="#FFB6B6"/>
<path d="M130.298 152.238C130.298 152.238 124.293 150.605 123.42 163.761C122.721 174.295 112.226 238.47 115.16 252.829C111.411 254.557 109.15 258.649 109.928 262.897L140.268 260.17C144.43 254.664 144.451 248.497 142.066 247.209L144.503 228.299L158.585 166.699L134.66 153.342L130.298 152.238Z" fill="#E6E6E6"/>
<path d="M150.197 556.698L161.727 556.697L167.212 512.226L150.195 512.227L150.197 556.698Z" fill="#FFB6B6"/>
<path d="M165.563 557.736V549.919L162.532 550.105L150.194 550.836L147.338 551.011L145.155 577.189L145.038 578.592H153.225L153.488 577.198L154.677 570.863L157.747 577.198L158.419 578.592H180.124C181.42 578.592 182.599 578.085 183.466 577.247C184.412 576.36 184.997 575.103 184.997 573.709C185.913 569.431 167.863 560.182 165.563 557.736Z" fill="#101010"/>
<path d="M99.5739 543.455L112.456 546L124.456 505L111.525 500.62L99.5739 543.455Z" fill="#FFB6B6"/>
<path d="M114.096 548.585L116.196 541.056L113.227 540.42L101.146 537.808L98.3488 537.209L89.21 561.837L88.7201 563.157L96.6054 565.358L97.2335 564.086L100.081 558.304L101.336 565.231L101.609 566.754L122.514 572.587C123.763 572.936 125.035 572.765 126.096 572.19C127.245 571.59 128.146 570.537 128.52 569.194C130.553 565.319 115.653 551.56 114.096 548.585Z" fill="#101010"/>
<path d="M207.3 306.071L207.597 302.952L194.773 267.794L140.123 278.332C140.123 278.332 111.956 313.03 118.22 335.996C119.918 342.224 123.549 415.639 122.456 418C97.282 472.372 104.315 510.725 104.315 510.725C104.315 510.725 112.271 517.664 125.9 521.103C129.456 522 156.497 400.023 156.497 400.023C156.497 400.023 155.305 407.635 153.644 419.208C148.513 454.963 140.452 526.942 147.614 530.669C157.094 535.602 166.163 534.687 166.163 534.687C166.163 534.687 195.719 445.878 189.456 425" fill="#101010"/>
<path d="M180.456 155L163.577 136.847L150.746 136.101L133.456 154L127.045 172.081C119.869 189.513 118.227 208.731 122.343 227.127L132.191 271.14C132.191 271.14 133.708 276.326 129.733 276.949C125.759 277.572 126.235 285.217 126.235 285.217C126.235 285.217 127.045 291.843 123.185 292.427C119.326 293.01 109.034 293.01 118.04 304.588C127.045 316.167 198.272 272.376 198.272 272.376L198.617 218.094C198.617 218.094 218.68 191.147 197.074 175.714L180.456 155Z" fill="#E6E6E6"/>
<path d="M222.956 346H140.956C134.063 346 128.456 340.393 128.456 333.5V251.5C128.456 244.607 134.063 239 140.956 239H222.956C229.849 239 235.456 244.607 235.456 251.5V333.5C235.456 340.393 229.849 346 222.956 346Z" fill="#1823FF"/>
<path d="M210.502 305.673C214.28 301.477 213.941 295.013 209.745 291.235C209.323 290.855 208.873 290.528 208.41 290.231L189.287 199.875L170.501 207.003L193.92 293.975C191.723 298.031 192.485 303.206 196.065 306.429C200.26 310.207 206.724 309.868 210.502 305.673Z" fill="#FFB6B6"/>
<path d="M172.574 154.525C172.574 154.525 178.244 151.959 181.194 164.81C183.557 175.099 204.108 236.794 203.49 251.437C207.466 252.548 210.348 256.229 210.254 260.546L179.867 262.671C174.883 257.896 173.883 251.81 176.033 250.159L170.625 231.876L146.941 173.293L168.443 156.308L172.574 154.525Z" fill="#E6E6E6"/>
<path d="M203.24 562.976C205.306 563.105 206.448 560.539 204.885 559.043L204.73 558.424C204.75 558.375 204.771 558.326 204.791 558.276C206.881 553.294 213.961 553.329 216.033 558.318C217.871 562.746 220.212 567.182 220.789 571.864C221.047 573.931 220.931 576.036 220.472 578.064C224.78 568.654 227.047 558.378 227.047 548.044C227.047 545.447 226.905 542.85 226.615 540.261C226.376 538.142 226.046 536.036 225.62 533.95C223.314 522.673 218.321 511.932 211.12 502.961C207.658 501.068 204.771 498.11 203.027 494.564C202.4 493.285 201.909 491.909 201.677 490.508C202.071 490.56 203.162 484.559 202.865 484.191C203.414 483.358 204.397 482.944 204.997 482.131C207.979 478.087 212.088 478.793 214.233 484.288C218.815 486.601 218.859 490.436 216.048 494.125C214.259 496.472 214.013 499.647 212.444 502.16C212.605 502.366 212.773 502.567 212.935 502.773C215.896 506.571 218.457 510.653 220.616 514.942C220.006 510.176 220.906 504.434 222.442 500.732C224.19 496.515 227.467 492.963 230.353 489.317C233.819 484.938 240.926 486.849 241.537 492.401C241.542 492.454 241.548 492.508 241.554 492.562C241.125 492.804 240.705 493.06 240.295 493.332C237.956 494.879 238.764 498.506 241.536 498.933L241.599 498.943C241.444 500.487 241.179 502.018 240.792 503.523C244.494 517.838 236.502 523.052 225.09 523.287C224.838 523.416 224.593 523.545 224.341 523.668C225.497 526.923 226.421 530.262 227.105 533.647C227.719 536.637 228.145 539.66 228.384 542.695C228.681 546.526 228.656 550.375 228.333 554.199L228.352 554.063C229.172 549.852 231.459 545.918 234.779 543.193C239.724 539.13 246.711 537.634 252.047 534.369C254.615 532.797 257.906 534.828 257.458 537.806L257.436 537.948C256.642 538.271 255.867 538.646 255.117 539.066C254.689 539.307 254.269 539.564 253.859 539.835C251.519 541.383 252.328 545.009 255.1 545.437L255.163 545.447C255.208 545.453 255.247 545.46 255.292 545.466C253.929 548.702 252.03 551.706 249.653 554.296C247.339 566.793 237.397 567.978 226.763 564.339H226.757C225.594 569.403 223.895 574.35 221.712 579.065H203.692C203.627 578.865 203.569 578.658 203.511 578.458C205.178 578.562 206.857 578.465 208.497 578.161C207.16 576.521 205.823 574.867 204.486 573.227C204.454 573.194 204.428 573.162 204.402 573.13C203.724 572.29 203.04 571.457 202.361 570.617L202.361 570.616C202.319 568.039 202.628 565.469 203.24 562.976Z" fill="#F2F2F2"/>
<path d="M61.5914 564.976C59.5255 565.105 58.3837 562.539 59.9467 561.043L60.1022 560.424C60.0817 560.375 60.0612 560.326 60.0404 560.276C57.9512 555.294 50.8705 555.329 48.799 560.318C46.9605 564.746 44.6196 569.182 44.0433 573.864C43.7849 575.931 43.9011 578.036 44.3597 580.064C40.0517 570.654 37.7846 560.378 37.7846 550.044C37.7846 547.447 37.9267 544.85 38.2173 542.261C38.4563 540.142 38.7857 538.036 39.212 535.95C41.5178 524.673 46.5106 513.932 53.7122 504.961C57.1741 503.068 60.0612 500.11 61.8051 496.564C62.4316 495.285 62.9225 493.909 63.155 492.508C62.761 492.56 61.6695 486.559 61.9666 486.191C61.4176 485.358 60.4348 484.944 59.8352 484.131C56.8529 480.087 52.744 480.793 50.599 486.288C46.0167 488.601 45.9724 492.436 48.784 496.125C50.5728 498.472 50.8186 501.647 52.3881 504.16C52.2266 504.366 52.0587 504.567 51.8972 504.773C48.9361 508.571 46.3751 512.653 44.2162 516.942C44.8263 512.176 43.9255 506.434 42.3897 502.732C40.6416 498.515 37.3648 494.963 34.4793 491.317C31.0133 486.938 23.9059 488.849 23.2953 494.401C23.2894 494.454 23.2836 494.508 23.278 494.562C23.7066 494.804 24.1265 495.06 24.5366 495.332C26.8761 496.879 26.0676 500.506 23.2955 500.933L23.2328 500.943C23.3878 502.487 23.6526 504.018 24.0401 505.523C20.3383 519.838 28.3302 525.052 39.7416 525.287C39.9935 525.416 40.239 525.545 40.4909 525.668C39.3347 528.923 38.4111 532.262 37.7265 535.647C37.1129 538.637 36.6866 541.66 36.4476 544.695C36.1505 548.526 36.1763 552.375 36.4993 556.199L36.4799 556.063C35.6597 551.852 33.3732 547.918 30.0533 545.193C25.1077 541.13 18.1205 539.634 12.785 536.369C10.2167 534.797 6.92559 536.828 7.37383 539.806L7.39565 539.948C8.19008 540.271 8.96512 540.646 9.71436 541.066C10.143 541.307 10.5628 541.564 10.973 541.835C13.3125 543.383 12.504 547.009 9.73193 547.437L9.66911 547.447C9.62391 547.453 9.58514 547.46 9.54 547.466C10.9028 550.702 12.8017 553.706 15.1785 556.296C17.4932 568.793 27.4346 569.978 38.0688 566.339H38.0752C39.2378 571.403 40.9365 576.35 43.1196 581.065H61.1398C61.2045 580.865 61.2626 580.658 61.3207 580.458C59.6543 580.562 57.975 580.465 56.3344 580.161C57.6714 578.521 59.0084 576.867 60.3454 575.227C60.3777 575.194 60.4036 575.162 60.4294 575.13C61.1075 574.29 61.7922 573.457 62.4704 572.617L62.4707 572.616C62.5132 570.039 62.2036 567.469 61.5914 564.976Z" fill="#F2F2F2"/>
<path d="M0 579.473C0 580.133 0.53003 580.663 1.19006 580.663H254.48C255.14 580.663 255.67 580.133 255.67 579.473C255.67 578.813 255.14 578.283 254.48 578.283H1.19006C0.53003 578.283 0 578.813 0 579.473Z" fill="#CCCCCC"/>
<path d="M163.487 124.234C176.983 124.234 187.924 113.293 187.924 99.7976C187.924 86.3018 176.983 75.3614 163.487 75.3614C149.992 75.3614 139.051 86.3018 139.051 99.7976C139.051 113.293 149.992 124.234 163.487 124.234Z" fill="#FFB6B6"/>
<path d="M186.344 98.8438C186.414 98.8438 186.584 98.8438 186.904 98.8538C187.834 98.9138 186.574 98.8638 186.344 98.8438Z" fill="#101010"/>
<path d="M199.354 96.5138C199.174 96.9538 198.584 97.3138 197.754 97.6038C196.174 95.5938 194.124 93.9638 191.784 92.9538C192.834 94.6638 193.694 96.4838 194.334 98.3838C192.064 98.7138 189.534 98.8538 187.904 98.8638C187.514 98.8638 187.174 98.8638 186.904 98.8538C186.504 98.1438 185.864 96.9938 185.314 95.8038C185.264 99.0538 180.734 108.634 181.104 116.734C181.554 126.424 182.064 136.994 182.064 136.994C180.434 137.404 178.464 137.694 176.214 137.874C173.734 133.324 171.894 128.234 170.904 123.074C170.794 122.524 170.704 121.974 170.614 121.424C170.404 122.054 170.204 122.694 170.034 123.344C169.284 126.044 168.844 128.954 168.704 131.974C168.604 133.964 168.644 135.984 168.794 138.034C156.454 140.544 141.194 140.284 130.154 134.154C130.524 133.144 130.804 132.104 130.984 131.044C131.584 127.564 126.744 127.074 123.524 129.204C120.304 125.974 117.864 121.874 116.544 116.744C137.584 107.514 115.434 96.1538 131.684 79.7838C129.724 65.5638 168.984 61.4538 176.584 74.0938C178.244 72.8338 183.414 72.8938 185.614 73.8138C187.814 74.7337 189.514 76.2838 191.174 77.7838C192.284 78.8038 191.764 80.8338 191.054 82.3538C194.544 80.6838 202.334 89.3638 199.354 96.5138Z" fill="#101010"/>
</g>
<defs>
<clipPath id="clip0_2_36">
<rect width="667.456" height="581.065" fill="white"/>
</clipPath>
</defs>
</svg>
